<svg width="1440" height="1024" viewBox="0 0 1440 1024" fill="none" xmlns="http://www.w3.org/2000/svg">
<rect width="1440" height="1024" fill="#112140"/>
<g filter="url(#filter0_f)">
<circle cx="1159" cy="254" r="167" fill="#FEFCCD"/>
</g>
<path d="M216 325L330.315 509L254.5 475.5L342 602.5L264.5 587L366 700L264.5 680H167L56 700L167 587L75.5 602.5L167 475.5L91.5 509L216 325Z" fill="#0B0B0C"/>
<path d="M418.613 205L546.941 506.269L461.832 451.419L560.058 659.36L473.058 633.981L587 819L473.058 786.253H363.606L239 819L363.606 633.981L260.89 659.36L363.606 451.419L278.852 506.269L418.613 205Z" fill="#0B0B0C"/>
<path d="M758 343L872.315 527L796.5 493.5L884 620.5L806.5 605L908 718L806.5 698H709L598 718L709 605L617.5 620.5L709 493.5L633.5 527L758 343Z" fill="#0B0B0C"/>
<path d="M935 353L1049.32 635.624L973.5 584.168L1061 779.24L983.5 755.432L1085 929L983.5 898.28H886L775 929L886 755.432L794.5 779.24L886 584.168L810.5 635.624L935 353Z" fill="#0B0B0C"/>
<path d="M1262 297L1376.32 579.624L1300.5 528.168L1388 723.24L1310.5 699.432L1412 873L1310.5 842.28H1213L1102 873L1213 699.432L1121.5 723.24L1213 528.168L1137.5 579.624L1262 297Z" fill="#0B0B0C"/>
<path d="M590.613 267L661.783 418.125L614.582 390.611L669.058 494.92L620.808 482.189L684 575L620.808 558.573H560.106L491 575L560.106 482.189L503.14 494.92L560.106 390.611L513.102 418.125L590.613 267Z" fill="#0B0B0C"/>
<path d="M1094.74 267L1191.73 418.125L1127.4 390.611L1201.64 494.92L1135.89 482.189L1222 575L1135.89 558.573H1053.17L959 575L1053.17 482.189L975.544 494.92L1053.17 390.611L989.118 418.125L1094.74 267Z" fill="#0B0B0C"/>
<defs>
<filter id="filter0_f" x="967" y="62" width="384" height="384" filterUnits="userSpaceOnUse" color-interpolation-filters="sRGB">
<feFlood flood-opacity="0" result="BackgroundImageFix"/>
<feBlend mode="normal" in="SourceGraphic" in2="BackgroundImageFix" result="shape"/>
<feGaussianBlur stdDeviation="12.5" result="effect1_foregroundBlur"/>
</filter>
</defs>
</svg>
